<svg width="374" height="237" viewBox="0 0 374 237" fill="none" xmlns="http://www.w3.org/2000/svg">
<g filter="url(#filter0_d_89_1348)">
<path d="M16 32C16 20.9543 24.9543 12 36 12H338C349.046 12 358 20.9543 358 32V158.646C358 169.692 349.046 178.646 338 178.646H94.3241C90.5204 178.646 86.7955 179.731 83.5864 181.773L37.3192 211.216C36.4443 211.773 35.654 212.453 34.9725 213.235C28.4024 220.772 16 216.125 16 206.126V178.646V32Z" fill="#F4F3F9"/>
<path d="M16 32C16 20.9543 24.9543 12 36 12H338C349.046 12 358 20.9543 358 32V158.646C358 169.692 349.046 178.646 338 178.646H94.3241C90.5204 178.646 86.7955 179.731 83.5864 181.773L37.3192 211.216C36.4443 211.773 35.654 212.453 34.9725 213.235C28.4024 220.772 16 216.125 16 206.126V178.646V32Z" fill="#F4F3F9"/>
<path d="M16 32C16 20.9543 24.9543 12 36 12H338C349.046 12 358 20.9543 358 32V158.646C358 169.692 349.046 178.646 338 178.646H94.3241C90.5204 178.646 86.7955 179.731 83.5864 181.773L37.3192 211.216C36.4443 211.773 35.654 212.453 34.9725 213.235C28.4024 220.772 16 216.125 16 206.126V178.646V32Z" fill="#F4F3F9"/>
<path d="M16 32C16 20.9543 24.9543 12 36 12H338C349.046 12 358 20.9543 358 32V158.646C358 169.692 349.046 178.646 338 178.646H94.3241C90.5204 178.646 86.7955 179.731 83.5864 181.773L37.3192 211.216C36.4443 211.773 35.654 212.453 34.9725 213.235C28.4024 220.772 16 216.125 16 206.126V178.646V32Z" fill="#F4F3F9"/>
</g>
<defs>
<filter id="filter0_d_89_1348" x="0" y="0" width="374" height="236.966" filterUnits="userSpaceOnUse" color-interpolation-filters="sRGB">
<feFlood flood-opacity="0" result="BackgroundImageFix"/>
<feColorMatrix in="SourceAlpha" type="matrix" values="0 0 0 0 0 0 0 0 0 0 0 0 0 0 0 0 0 0 127 0" result="hardAlpha"/>
<feOffset dy="4"/>
<feGaussianBlur stdDeviation="8"/>
<feComposite in2="hardAlpha" operator="out"/>
<feColorMatrix type="matrix" values="0 0 0 0 0 0 0 0 0 0 0 0 0 0 0 0 0 0 0.25 0"/>
<feBlend mode="normal" in2="BackgroundImageFix" result="effect1_dropShadow_89_1348"/>
<feBlend mode="normal" in="SourceGraphic" in2="effect1_dropShadow_89_1348" result="shape"/>
</filter>
</defs>
</svg>
