<svg width="190" height="108" viewBox="0 0 190 108" fill="none" xmlns="http://www.w3.org/2000/svg">
<g filter="url(#filter0_d_107_5357)">
<g filter="url(#filter1_d_107_5357)">
<path fill-rule="evenodd" clip-rule="evenodd" d="M30 8C18.9543 8 10 16.9543 10 28V51H180V28C180 16.9543 171.046 8 160 8H30ZM180 53H10V78C10 89.0457 18.9543 98 30 98H160C171.046 98 180 89.0457 180 78V53Z" fill="white"/>
</g>
<path d="M35.375 70.5625C35.375 72.3906 36.6562 74.0938 38.7812 74.7969L38.0156 75.9531C36.4375 75.4297 35.2734 74.3125 34.6719 72.9062C34.0547 74.4453 32.8594 75.625 31.2031 76.2031L30.4375 75.0312C32.6406 74.2812 33.9062 72.4688 33.9062 70.4375V69.0469H35.375V70.5625ZM41.5156 68.3281V71.9375H43.5469V73.1875H41.5156V76.8125H40.0312V68.3281H41.5156ZM41.5156 77.4531V82.3281H40.0312V78.6562H32.2656V77.4531H41.5156ZM56.3594 68.3281V82.3281H54.9375V68.3281H56.3594ZM53.5156 68.625V81.625H52.1094V74.5H49.9375V73.2812H52.1094V68.625H53.5156ZM48.5625 72.2344C48.5625 74.625 49.5312 77.0156 51.5 78.1562L50.6094 79.25C49.2734 78.4531 48.3516 77.0391 47.875 75.3438C47.3672 77.1719 46.4141 78.7266 45.0469 79.5781L44.1406 78.4688C46.125 77.2656 47.1406 74.7188 47.1406 72.2344V71.1094H44.5625V69.9062H50.9688V71.1094H48.5625V72.2344ZM69.0781 68.3281V74H71.3281V75.2344H69.0781V82.3281H67.6094V68.3281H69.0781ZM66.3906 70.5156V71.7344H58.0938V70.5156H61.5469V68.5156H63.0312V70.5156H66.3906ZM62.2969 72.7656C64.2969 72.7656 65.7656 74.1094 65.7812 76.0156C65.7656 77.9375 64.2969 79.2656 62.2969 79.2812C60.2812 79.2656 58.8125 77.9375 58.8125 76.0156C58.8125 74.1094 60.2812 72.7656 62.2969 72.7656ZM62.2969 73.9844C61.1094 73.9844 60.2188 74.8125 60.2344 76.0156C60.2188 77.2344 61.1094 78.0469 62.2969 78.0312C63.4844 78.0469 64.3594 77.2344 64.3594 76.0156C64.3594 74.8125 63.4844 73.9844 62.2969 73.9844ZM83.6406 68.3281V82.3281H82.1406V68.3281H83.6406ZM79.4688 69.8281C79.4688 73.9219 77.7188 77.4844 72.9219 79.7812L72.1406 78.5781C75.8672 76.8047 77.6797 74.2812 77.9688 71.0156H72.8125V69.8281H79.4688Z" fill="#767676"/>
<path d="M41.5156 22.3281V25.5312H43.5469V26.7656H41.5156V29.7969H40.0312V22.3281H41.5156ZM37.3594 23.2188V24.4375H32.6094V28.1562C35.3359 28.1484 36.875 28.0625 38.625 27.6875L38.7969 28.8906C36.9062 29.2812 35.25 29.375 32.25 29.375H31.1406V23.2188H37.3594ZM34.0156 30.5312V32.125H40.0312V30.5312H41.5156V36.1094H32.5469V30.5312H34.0156ZM34.0156 34.9062H40.0312V33.2969H34.0156V34.9062ZM49.2344 24.9062C49.2344 26.6875 50.4688 28.3125 52.5938 28.9844L51.8906 30.1406C50.2969 29.6328 49.1328 28.5781 48.5156 27.25C47.9062 28.7812 46.6797 29.9922 45 30.5781L44.2344 29.3906C46.4219 28.6719 47.7344 26.8594 47.75 24.9219V24.5312H44.6719V23.3281H52.25V24.5312H49.2344V24.9062ZM55.3438 22.3281V25.7969H57.375V27.0156H55.3438V30.7344H53.8594V22.3281H55.3438ZM50.8281 31.0781C53.7188 31.0781 55.4688 32.0312 55.4688 33.6719C55.4688 35.3281 53.7188 36.3125 50.8281 36.2969C47.9062 36.3125 46.125 35.3281 46.125 33.6719C46.125 32.0312 47.9062 31.0781 50.8281 31.0781ZM50.8281 32.25C48.7969 32.25 47.5938 32.7656 47.6094 33.6719C47.5938 34.6094 48.7969 35.125 50.8281 35.125C52.8438 35.125 54.0156 34.6094 54.0156 33.6719C54.0156 32.7656 52.8438 32.25 50.8281 32.25ZM69.0781 22.3281V28H71.3281V29.2344H69.0781V36.3281H67.6094V22.3281H69.0781ZM66.3906 24.5156V25.7344H58.0938V24.5156H61.5469V22.5156H63.0312V24.5156H66.3906ZM62.2969 26.7656C64.2969 26.7656 65.7656 28.1094 65.7812 30.0156C65.7656 31.9375 64.2969 33.2656 62.2969 33.2812C60.2812 33.2656 58.8125 31.9375 58.8125 30.0156C58.8125 28.1094 60.2812 26.7656 62.2969 26.7656ZM62.2969 27.9844C61.1094 27.9844 60.2188 28.8125 60.2344 30.0156C60.2188 31.2344 61.1094 32.0469 62.2969 32.0312C63.4844 32.0469 64.3594 31.2344 64.3594 30.0156C64.3594 28.8125 63.4844 27.9844 62.2969 27.9844ZM83.6406 22.3281V36.3281H82.1406V22.3281H83.6406ZM79.4688 23.8281C79.4688 27.9219 77.7188 31.4844 72.9219 33.7812L72.1406 32.5781C75.8672 30.8047 77.6797 28.2812 77.9688 25.0156H72.8125V23.8281H79.4688Z" fill="#767676"/>
<path fill-rule="evenodd" clip-rule="evenodd" d="M151.278 25.0791C151.679 24.8936 152.127 24.8378 152.561 24.9193C152.864 24.9763 153.121 25.1118 153.362 25.2714C153.59 25.4226 153.851 25.6281 154.152 25.8664L154.512 26.1501C154.814 26.3884 155.074 26.5939 155.275 26.7811C155.486 26.9787 155.679 27.1982 155.807 27.4819C155.99 27.8875 156.046 28.3404 155.965 28.7789C155.909 29.0856 155.775 29.3459 155.617 29.5895C155.467 29.8203 155.264 30.0836 155.029 30.3887L148.863 38.3758C148.85 38.3924 148.838 38.4088 148.825 38.425C148.587 38.7338 148.407 38.9673 148.184 39.1591C147.995 39.3214 147.787 39.4582 147.563 39.566C147.299 39.6934 147.015 39.7643 146.639 39.858C146.619 39.8629 146.599 39.8679 146.579 39.873L144.5 40.392C144.395 40.4183 144.275 40.4483 144.169 40.4647C144.051 40.483 143.868 40.4997 143.666 40.4343C143.424 40.3558 143.217 40.1924 143.083 39.9735C142.971 39.7914 142.942 39.6082 142.931 39.488C142.922 39.3801 142.921 39.2552 142.921 39.1457L142.914 36.9803C142.914 36.9592 142.914 36.9384 142.914 36.9178C142.912 36.5262 142.911 36.2301 142.97 35.9401C143.019 35.6946 143.099 35.4566 143.209 35.2321C143.339 34.9669 143.519 34.7336 143.758 34.4249C143.77 34.4087 143.783 34.3923 143.796 34.3757L149.961 26.3887C150.197 26.0835 150.4 25.8202 150.585 25.6175C150.78 25.4035 150.997 25.2088 151.278 25.0791ZM152.3 26.3396C152.155 26.3124 152.006 26.331 151.872 26.3929C151.835 26.4099 151.769 26.4507 151.634 26.5976C151.494 26.7509 151.328 26.9661 151.07 27.2999L150.874 27.5543L153.689 29.7765L153.885 29.5222C154.143 29.1884 154.309 28.9725 154.422 28.7979C154.53 28.6306 154.553 28.5552 154.561 28.515C154.587 28.3689 154.569 28.2179 154.508 28.0827C154.491 28.0455 154.451 27.9781 154.305 27.8424C154.154 27.7008 153.941 27.5321 153.611 27.2715L153.296 27.0226C152.965 26.762 152.752 26.5942 152.579 26.4799C152.414 26.3703 152.339 26.3471 152.3 26.3396ZM152.81 30.9153L149.995 28.693L144.922 35.2646C144.629 35.6438 144.547 35.7563 144.489 35.873C144.435 35.9852 144.394 36.1042 144.37 36.227C144.344 36.3546 144.341 36.4947 144.343 36.9757L144.349 38.9417L146.236 38.4704C146.698 38.3552 146.832 38.3183 146.948 38.2622C147.06 38.2083 147.164 38.1399 147.258 38.0587C147.357 37.9743 147.444 37.866 147.737 37.4869L152.81 30.9153ZM150.119 39.8535C150.119 39.4546 150.439 39.1312 150.833 39.1312H156.667C157.061 39.1312 157.381 39.4546 157.381 39.8535C157.381 40.2524 157.061 40.5758 156.667 40.5758H150.833C150.439 40.5758 150.119 40.2524 150.119 39.8535Z" fill="#767676"/>
<path fill-rule="evenodd" clip-rule="evenodd" d="M145.985 66.904H142.5C142.086 66.904 141.75 67.2435 141.75 67.6624C141.75 68.0813 142.086 68.4208 142.5 68.4208H143.462L144.134 79.2966C144.225 80.7622 145.427 81.904 146.879 81.904H153.121C154.573 81.904 155.775 80.7622 155.866 79.2966L156.538 68.4208H157.5C157.914 68.4208 158.25 68.0813 158.25 67.6624C158.25 67.2435 157.914 66.904 157.5 66.904H155.839C155.835 66.904 155.831 66.904 155.826 66.904H154.015C153.662 64.9857 151.999 63.5332 150 63.5332C148.001 63.5332 146.338 64.9857 145.985 66.904ZM147.527 66.904H152.473C152.151 65.8311 151.166 65.0501 150 65.0501C148.834 65.0501 147.849 65.8311 147.527 66.904ZM155.035 68.4208H144.965L145.631 79.2019C145.673 79.8681 146.219 80.3871 146.879 80.3871H153.121C153.781 80.3871 154.327 79.8681 154.369 79.2019L155.035 68.4208ZM151.893 71.1255C152.307 71.1547 152.618 71.5171 152.589 71.935L152.24 76.9788C152.212 77.3967 151.853 77.7117 151.44 77.6825C151.027 77.6533 150.715 77.2909 150.744 76.873L151.093 71.8292C151.122 71.4113 151.48 71.0963 151.893 71.1255ZM148.107 71.1255C148.52 71.0963 148.878 71.4113 148.907 71.8292L149.256 76.873C149.285 77.2909 148.973 77.6533 148.56 77.6825C148.147 77.7117 147.788 77.3967 147.76 76.9789L147.411 71.935C147.382 71.5171 147.693 71.1547 148.107 71.1255Z" fill="#767676"/>
<line x1="10" y1="52" x2="180" y2="52" stroke="#F5F5F5" stroke-width="2"/>
</g>
<defs>
<filter id="filter0_d_107_5357" x="0" y="0" width="190" height="110" filterUnits="userSpaceOnUse" color-interpolation-filters="sRGB">
<feFlood flood-opacity="0" result="BackgroundImageFix"/>
<feColorMatrix in="SourceAlpha" type="matrix" values="0 0 0 0 0 0 0 0 0 0 0 0 0 0 0 0 0 0 127 0" result="hardAlpha"/>
<feOffset dy="2"/>
<feGaussianBlur stdDeviation="5"/>
<feComposite in2="hardAlpha" operator="out"/>
<feColorMatrix type="matrix" values="0 0 0 0 0 0 0 0 0 0 0 0 0 0 0 0 0 0 0.1 0"/>
<feBlend mode="normal" in2="BackgroundImageFix" result="effect1_dropShadow_107_5357"/>
<feBlend mode="normal" in="SourceGraphic" in2="effect1_dropShadow_107_5357" result="shape"/>
</filter>
<filter id="filter1_d_107_5357" x="0" y="0" width="190" height="110" filterUnits="userSpaceOnUse" color-interpolation-filters="sRGB">
<feFlood flood-opacity="0" result="BackgroundImageFix"/>
<feColorMatrix in="SourceAlpha" type="matrix" values="0 0 0 0 0 0 0 0 0 0 0 0 0 0 0 0 0 0 127 0" result="hardAlpha"/>
<feOffset dy="2"/>
<feGaussianBlur stdDeviation="5"/>
<feComposite in2="hardAlpha" operator="out"/>
<feColorMatrix type="matrix" values="0 0 0 0 0.262745 0 0 0 0 0 0 0 0 0 0.819608 0 0 0 0.1 0"/>
<feBlend mode="normal" in2="BackgroundImageFix" result="effect1_dropShadow_107_5357"/>
<feBlend mode="normal" in="SourceGraphic" in2="effect1_dropShadow_107_5357" result="shape"/>
</filter>
</defs>
</svg>
