<svg width="28" height="28" viewBox="0 0 28 28" fill="none" xmlns="http://www.w3.org/2000/svg">
<g id="download">
<path id="Vector" fill-rule="evenodd" clip-rule="evenodd" d="M14 3.66663C14.5523 3.66663 15 4.11434 15 4.66663V15.0857L17.9595 12.1262C18.3501 11.7357 18.9832 11.7357 19.3738 12.1262C19.7643 12.5167 19.7643 13.1499 19.3738 13.5404L14.7071 18.2071C14.5196 18.3946 14.2652 18.5 14 18.5C13.7348 18.5 13.4804 18.3946 13.2929 18.2071L8.62622 13.5404C8.23569 13.1499 8.23569 12.5167 8.62622 12.1262C9.01674 11.7357 9.6499 11.7357 10.0404 12.1262L13 15.0857V4.66663C13 4.11434 13.4477 3.66663 14 3.66663ZM4.66666 16.5C5.21894 16.5 5.66666 16.9477 5.66666 17.5C5.66666 18.6321 5.6715 19.0521 5.73711 19.382C6.02643 20.8365 7.16346 21.9735 8.61799 22.2628C8.94783 22.3284 9.36788 22.3333 10.5 22.3333H17.5C18.6321 22.3333 19.0521 22.3284 19.382 22.2628C20.8365 21.9735 21.9735 20.8365 22.2629 19.382C22.3285 19.0521 22.3333 18.6321 22.3333 17.5C22.3333 16.9477 22.781 16.5 23.3333 16.5C23.8856 16.5 24.3333 16.9477 24.3333 17.5C24.3333 17.5412 24.3333 17.5818 24.3333 17.6219C24.3335 18.5889 24.3336 19.2231 24.2244 19.7721C23.7773 22.0201 22.0201 23.7773 19.7722 24.2244C19.2232 24.3336 18.589 24.3335 17.6219 24.3333C17.5819 24.3333 17.5412 24.3333 17.5 24.3333H10.5C10.4588 24.3333 10.4181 24.3333 10.378 24.3333C9.41103 24.3335 8.7768 24.3336 8.22781 24.2244C5.9799 23.7773 4.22268 22.0201 3.77554 19.7721C3.66634 19.2231 3.66646 18.5889 3.66664 17.6219C3.66665 17.5819 3.66666 17.5412 3.66666 17.5C3.66666 16.9477 4.11437 16.5 4.66666 16.5Z" fill="white"/>
</g>
</svg>
