<svg width="28" height="28" viewBox="0 0 28 28" fill="none" xmlns="http://www.w3.org/2000/svg">
<g id="gear-settings">
<g id="Vector">
<path fill-rule="evenodd" clip-rule="evenodd" d="M14 9.50002C11.5147 9.50002 9.49999 11.5147 9.49999 14C9.49999 16.4853 11.5147 18.5 14 18.5C16.4853 18.5 18.5 16.4853 18.5 14C18.5 11.5147 16.4853 9.50002 14 9.50002ZM11.5 14C11.5 12.6193 12.6193 11.5 14 11.5C15.3807 11.5 16.5 12.6193 16.5 14C16.5 15.3807 15.3807 16.5 14 16.5C12.6193 16.5 11.5 15.3807 11.5 14Z" fill="#12151C"/>
<path fill-rule="evenodd" clip-rule="evenodd" d="M13.141 1.50001C12.9348 1.49993 12.682 1.49983 12.4567 1.51709C12.1906 1.53749 11.8217 1.58936 11.426 1.76937C10.9259 1.99689 10.4979 2.35736 10.1887 2.81147C9.94406 3.17075 9.83022 3.5255 9.76487 3.7843C9.70956 4.00334 9.66668 4.25248 9.63171 4.45568L9.40178 5.78845C9.26802 5.85949 9.13618 5.93353 9.00636 6.01049L7.56506 5.48886C7.37499 5.41999 7.14127 5.3353 6.92701 5.27563C6.67339 5.20501 6.31513 5.1291 5.88892 5.16046C5.34917 5.20018 4.83021 5.38518 4.38705 5.69584C4.0371 5.94115 3.80765 6.22657 3.65589 6.4417C3.52769 6.62345 3.40024 6.83688 3.2966 7.01046L2.48414 8.36986C2.37443 8.55328 2.24062 8.77696 2.13732 8.98509C2.01571 9.23013 1.86714 9.58456 1.8223 10.0305C1.76584 10.592 1.86893 11.1581 2.11972 11.6637C2.31888 12.0652 2.58285 12.3445 2.78304 12.531C2.95308 12.6893 3.15714 12.8515 3.32448 12.9845L4.393 13.8342C4.39201 13.8894 4.39152 13.9447 4.39152 14C4.39152 14.0554 4.39201 14.1107 4.393 14.1659L3.32454 15.0156C3.1572 15.1485 2.95314 15.3107 2.78309 15.4691C2.5829 15.6555 2.31893 15.9348 2.11977 16.3363C1.86898 16.8419 1.76589 17.408 1.82236 17.9695C1.86719 18.4155 2.01576 18.7699 2.13738 19.015C2.24067 19.2231 2.37446 19.4467 2.48417 19.6301L3.29662 20.9895C3.40027 21.1631 3.52773 21.3766 3.65594 21.5583C3.8077 21.7735 4.03715 22.0589 4.3871 22.3042C4.83027 22.6149 5.34922 22.7999 5.88897 22.8396C6.31518 22.8709 6.67344 22.795 6.92706 22.7244C7.14133 22.6647 7.37506 22.58 7.56513 22.5112L9.00637 21.9896C9.1362 22.0665 9.26803 22.1406 9.40178 22.2116L9.6317 23.5444C9.66668 23.7476 9.70956 23.9967 9.76487 24.2157C9.83022 24.4745 9.94406 24.8293 10.1887 25.1886C10.4979 25.6427 10.9259 26.0032 11.426 26.2307C11.8217 26.4107 12.1906 26.4626 12.4567 26.483C12.682 26.5002 12.9348 26.5001 13.141 26.5H14.859C15.0652 26.5001 15.318 26.5002 15.5433 26.483C15.8094 26.4626 16.1783 26.4107 16.574 26.2307C17.0741 26.0032 17.502 25.6427 17.8113 25.1886C18.0559 24.8293 18.1698 24.4745 18.2351 24.2157C18.2904 23.9967 18.3333 23.7475 18.3683 23.5443L18.5982 22.2116C18.732 22.1406 18.8638 22.0665 18.9936 21.9896L20.4349 22.5112C20.625 22.5801 20.8587 22.6648 21.0729 22.7244C21.3265 22.7951 21.6848 22.871 22.111 22.8396C22.6508 22.7999 23.1697 22.6149 23.6129 22.3042C23.9628 22.0589 24.1923 21.7735 24.344 21.5584C24.4722 21.3767 24.5996 21.1633 24.7033 20.9897L25.5158 19.6302C25.6255 19.4468 25.7593 19.2231 25.8626 19.015C25.9842 18.7699 26.1328 18.4155 26.1776 17.9696C26.2341 17.408 26.131 16.8419 25.8802 16.3363C25.6811 15.9348 25.4171 15.6555 25.2169 15.4691C25.0469 15.3107 24.8428 15.1486 24.6755 15.0156L23.607 14.1659C23.608 14.1107 23.6085 14.0554 23.6085 14C23.6085 13.9447 23.608 13.8894 23.607 13.8342L24.6755 12.9845C24.8428 12.8515 25.0469 12.6893 25.2169 12.531C25.4171 12.3445 25.6811 12.0652 25.8803 11.6637C26.1311 11.1581 26.2341 10.592 26.1777 10.0305C26.1328 9.58455 25.9843 9.23011 25.8627 8.98507C25.7594 8.77696 25.6256 8.55333 25.5159 8.36992L24.7034 7.01048C24.5998 6.83691 24.4723 6.62343 24.3441 6.44169C24.1923 6.22655 23.9629 5.94114 23.6129 5.69583C23.1698 5.38516 22.6508 5.20017 22.1111 5.16045C21.6849 5.12908 21.3266 5.20499 21.073 5.27562C20.8587 5.33528 20.625 5.41996 20.435 5.48883L18.9936 6.01048C18.8638 5.93352 18.732 5.85948 18.5982 5.78845L18.3683 4.4557C18.3333 4.25249 18.2904 4.00334 18.2351 3.7843C18.1698 3.5255 18.0559 3.17075 17.8113 2.81147C17.502 2.35736 17.0741 1.99689 16.574 1.76937C16.1783 1.58936 15.8094 1.53749 15.5433 1.51709C15.318 1.49983 15.0652 1.49993 14.859 1.50001L13.141 1.50001ZM16.4044 4.83628C16.3216 4.35634 16.2802 4.11636 16.1582 3.93717C16.0551 3.7858 15.9124 3.66564 15.7457 3.5898C15.5484 3.50002 15.3049 3.50002 14.8178 3.50002H13.1822C12.6951 3.50002 12.4516 3.50002 12.2543 3.5898C12.0876 3.66564 11.9449 3.7858 11.8418 3.93717C11.7198 4.11637 11.6784 4.35634 11.5956 4.8363L11.3492 6.26438C11.2931 6.58936 11.2651 6.75186 11.204 6.87831C11.1454 6.99973 11.0928 7.07213 10.9955 7.16543C10.8941 7.26259 10.7163 7.35633 10.3607 7.5438C10.2407 7.60703 10.1227 7.67329 10.0068 7.74248C9.67396 7.9411 9.50755 8.04041 9.37657 8.07639C9.25074 8.11095 9.16467 8.11918 9.03458 8.10912C8.89915 8.09864 8.74977 8.04458 8.45103 7.93646L6.92249 7.38327C6.47326 7.22069 6.24864 7.1394 6.0357 7.15507C5.85579 7.16831 5.6828 7.22997 5.53508 7.33353C5.36025 7.45609 5.2377 7.66113 4.99261 8.07122L4.22269 9.35946C3.96394 9.79241 3.83456 10.0089 3.81227 10.2306C3.79345 10.4178 3.82781 10.6065 3.91141 10.775C4.01042 10.9746 4.2078 11.1316 4.60256 11.4455L5.74264 12.3522C6.00437 12.5603 6.13523 12.6644 6.21702 12.7792C6.29637 12.8907 6.33344 12.9695 6.36869 13.1016C6.40501 13.2379 6.40097 13.4448 6.3929 13.8587C6.39198 13.9057 6.39152 13.9528 6.39152 14C6.39152 14.0472 6.39198 14.0944 6.3929 14.1414C6.40098 14.5553 6.40502 14.7622 6.36869 14.8984C6.33344 15.0306 6.29637 15.1094 6.21702 15.2208C6.13524 15.3357 6.00438 15.4398 5.74266 15.6479L4.60262 16.5545C4.20785 16.8685 4.01047 17.0254 3.91146 17.225C3.82786 17.3936 3.7935 17.5823 3.81232 17.7695C3.83461 17.9912 3.96399 18.2076 4.22274 18.6406L4.99266 19.9288C5.23775 20.3389 5.3603 20.544 5.53513 20.6665C5.68285 20.7701 5.85584 20.8317 6.03576 20.845C6.24869 20.8606 6.47331 20.7794 6.92255 20.6168L8.45105 20.0636C8.7498 19.9555 8.89917 19.9014 9.03459 19.8909C9.16469 19.8809 9.25076 19.8891 9.37658 19.9237C9.50757 19.9596 9.67397 20.0589 10.0068 20.2576C10.1227 20.3268 10.2407 20.393 10.3607 20.4563C10.7163 20.6437 10.8941 20.7374 10.9955 20.8346C11.0928 20.9279 11.1454 21.0003 11.204 21.1217C11.2651 21.2482 11.2931 21.4107 11.3492 21.7357L11.5956 23.1637C11.6784 23.6437 11.7198 23.8837 11.8418 24.0629C11.9449 24.2142 12.0876 24.3344 12.2543 24.4102C12.4516 24.5 12.6951 24.5 13.1822 24.5H14.8178C15.3049 24.5 15.5484 24.5 15.7457 24.4102C15.9124 24.3344 16.0551 24.2142 16.1582 24.0629C16.2802 23.8837 16.3216 23.6437 16.4044 23.1638L16.6508 21.7357C16.7068 21.4107 16.7349 21.2482 16.7959 21.1217C16.8546 21.0003 16.9072 20.9279 17.0045 20.8346C17.1059 20.7374 17.2837 20.6437 17.6393 20.4563C17.7593 20.393 17.8773 20.3268 17.9932 20.2576C18.326 20.059 18.4924 19.9597 18.6234 19.9237C18.7492 19.8891 18.8353 19.8809 18.9654 19.8909C19.1008 19.9014 19.2502 19.9555 19.5489 20.0636L21.0774 20.6168C21.5267 20.7794 21.7513 20.8607 21.9642 20.845C22.1441 20.8318 22.3171 20.7701 22.4649 20.6665C22.6397 20.544 22.7622 20.3389 23.0073 19.9288L23.7772 18.6406C24.036 18.2077 24.1654 17.9912 24.1877 17.7695C24.2065 17.5823 24.1721 17.3936 24.0885 17.2251C23.9895 17.0254 23.7921 16.8685 23.3974 16.5545L22.2573 15.6479C21.9956 15.4398 21.8647 15.3357 21.783 15.2208C21.7036 15.1094 21.6665 15.0306 21.6313 14.8985C21.595 14.7622 21.599 14.5553 21.6071 14.1414C21.608 14.0944 21.6085 14.0472 21.6085 14C21.6085 13.9528 21.608 13.9057 21.6071 13.8587C21.599 13.4448 21.595 13.2379 21.6313 13.1016C21.6665 12.9695 21.7036 12.8907 21.783 12.7792C21.8647 12.6644 21.9956 12.5603 22.2573 12.3522L23.3974 11.4455C23.7922 11.1316 23.9896 10.9746 24.0886 10.775C24.1722 10.6064 24.2065 10.4178 24.1877 10.2306C24.1654 10.0089 24.036 9.79239 23.7773 9.35945L23.0074 8.07121C22.7623 7.66111 22.6397 7.45607 22.4649 7.33351C22.3172 7.22996 22.1442 7.16829 21.9643 7.15505C21.7513 7.13938 21.5267 7.22067 21.0775 7.38326L19.5489 7.93645C19.2502 8.04457 19.1008 8.09863 18.9654 8.10911C18.8353 8.11917 18.7492 8.11094 18.6234 8.07638C18.4924 8.04041 18.326 7.9411 17.9932 7.74248C17.8773 7.67329 17.7593 7.60703 17.6393 7.5438C17.2837 7.35633 17.1059 7.26259 17.0045 7.16543C16.9072 7.07213 16.8546 6.99973 16.7959 6.87831C16.7349 6.75186 16.7068 6.58937 16.6508 6.26438L16.4044 4.83628Z" fill="#12151C"/>
</g>
</g>
</svg>
