<svg width="252" height="211" viewBox="0 0 252 211" fill="none" xmlns="http://www.w3.org/2000/svg">
<path id="Vector" d="M175.956 161.607C164.178 161.847 152.864 160.174 142.662 153.756C141.137 152.796 139.419 152.425 138.023 153.568C136.224 155.04 137.843 156.636 138.5 157.982C143.272 167.751 149.923 176.31 156.3 185.024C158.034 187.393 157.964 188.668 155.638 190.445C144.656 198.836 133.232 206.342 119.548 209.622C117.348 210.149 114.894 211.164 113.199 208.933C111.492 206.684 113.178 204.597 114.27 202.619C115.449 200.481 117.007 198.601 118.878 197.065C126.098 191.137 133.997 186.323 142.752 182.998C143.706 182.635 144.907 182.589 145.153 181.461C145.41 180.276 144.27 179.665 143.473 179.143C137.632 175.318 133.255 170.032 128.916 164.705C126.814 162.124 125.164 159.27 123.884 156.197C123.362 154.945 123.142 153.459 121.179 153.55C119.475 153.629 118.757 154.695 118.124 156.003C113.135 166.308 108.699 176.855 104.367 187.447C104.27 187.682 104.204 187.93 104.11 188.166C101.356 195.083 100.679 195.445 94.0427 192.089C87.3565 188.708 80.4456 185.715 74.3019 181.333C71.3648 179.237 68.9266 176.662 67.1247 173.533C64.6356 169.211 66.3322 166.235 71.2389 166.297C76.0184 166.357 80.5801 167.581 84.8989 169.48C89.3957 171.457 94.4792 172.05 98.4226 175.382C99.7322 176.488 100.801 175.535 101.268 174.103C103.314 167.815 106.042 161.801 108.723 155.777C110.114 152.652 108.962 151.889 106.032 152.024C99.4852 152.325 93.0636 151.589 86.9302 149.178C78.9586 146.045 72.643 141.003 68.8436 133.124C67.1011 129.509 65.7981 129.196 62.996 132.112C60.4682 134.743 57.5759 136.727 54.3015 138.17C46.2857 141.703 38.9498 138.908 35.4163 130.85C31.9882 123.033 32.7032 115.244 36.063 107.556C36.5824 106.367 38.1421 105.228 36.9488 103.792C35.7669 102.369 34.0304 103.044 32.6614 103.479C28.5176 104.797 24.3804 105.916 19.966 105.674C17.5374 105.541 15.1355 105.274 12.8323 104.524C1.02993 100.681 -2.67433 88.9317 4.32429 78.0357C11.734 66.4997 26.0043 61.7564 40.1995 68.2816C41.0932 68.6921 42.0093 69.6112 42.9193 68.5643C43.9129 67.4206 42.9798 66.4561 42.3108 65.537C37.6553 59.1408 37.4119 52.4195 40.8135 45.4221C47.5917 31.4775 60.5899 26.0568 74.3619 31.3764C76.8304 32.33 79.0022 33.3206 79.3661 36.4145C79.5193 37.7193 80.4608 38.8848 82.0544 38.3502C83.6013 37.8307 82.9456 36.512 82.7725 35.4246C80.6024 21.7773 87.2705 6.74535 101.693 2.1117C116.969 -2.79623 121.394 2.47014 125.573 15.2679C126.157 17.0577 126.326 18.9994 126.547 20.8873C126.73 22.4573 127.396 23.7063 128.962 23.8607C130.542 24.0163 130.885 22.5372 131.337 21.3341C135.368 10.581 145.65 3.41103 157.154 3.30871C162.958 3.25724 166.34 6.73202 165.898 12.5712C165.581 16.7761 164.679 20.8818 162.363 24.5195C161.592 25.7298 160.635 26.8772 162.261 28.1002C163.876 29.3148 165.063 28.4768 166.195 27.2502C173.213 19.6412 182.389 16.5455 192.239 14.9706C194.224 14.6534 196.312 14.6467 198.318 14.8417C210.139 15.9896 217.083 26.6816 213.379 37.9972C210.877 45.6401 205.374 51.1498 199.958 56.7322C199.11 57.6071 196.588 57.9916 198.325 60.1235C199.837 61.9804 201.344 60.6896 202.687 59.8383C208.51 56.1449 215.018 54.6058 221.717 53.6159C228.571 52.6023 234.823 54.5816 239.887 58.8477C246.776 64.65 252.97 71.2362 251.07 81.5571C249.23 91.5503 243.202 98.1366 234.055 101.982C230.437 103.503 226.648 104.865 222.614 103.189C221.735 102.824 220.832 102.732 220.295 103.738C219.86 104.553 220.398 105.161 220.891 105.763C231.152 118.296 230.615 132.986 219.426 145.037C210.157 155.02 198.639 160.275 185.103 161.195C182.06 161.399 179.006 161.472 175.956 161.607ZM133.5 115.828C148.936 115.223 165.56 106.911 176.635 88.7513C181.084 81.4578 183.349 73.4474 183.774 64.9139C183.864 63.1066 183.636 61.5439 181.397 61.3187C179.301 61.108 178.401 62.2511 178.176 64.1904C178.001 65.7035 177.632 67.2002 177.546 68.7157C177.262 73.7483 175.914 78.5146 173.635 82.9466C157.592 114.151 125.874 117.979 98.0109 102.764C83.7491 94.9767 76.6015 81.1708 74.0065 65.1931C73.6523 63.0122 73.2381 60.9729 70.3894 61.464C67.4953 61.9629 68.3181 64.2128 68.6348 66.0008C74.1149 96.9384 96.7158 115.88 133.5 115.828ZM203.476 119.728C209.432 114.003 208.207 107.731 205.944 101.362C205.401 99.8362 204.331 98.9794 202.714 99.6358C201.217 100.244 201.661 101.617 202.169 102.578C205.564 109 203.764 114.315 198.885 119.069C198.287 119.653 197.405 120.248 197.901 121.319C198.385 122.364 199.303 122.674 200.409 122.696C201.803 122.724 203.212 122.734 204.584 122.952C208.993 123.651 210.776 125.988 210.231 130.349C209.926 132.797 208.978 134.995 207.259 136.821C205.639 138.543 203.757 140.051 201.318 139.657C198.477 139.196 199.867 136.612 199.466 134.944C199.084 133.35 198.545 131.813 196.547 132.204C194.437 132.617 195.679 134.224 195.824 135.288C196.338 139.047 195.17 142.086 192.069 144.251C190.422 145.4 188.791 145.183 187.229 143.775C185.777 142.466 185.978 141.234 186.857 139.749C188.054 137.728 188.467 135.487 188.362 133.149C188.296 131.68 188.723 129.669 186.45 129.766C184.623 129.844 184.798 131.445 184.83 132.97C184.92 137.258 182.906 140.584 179.297 142.768C175.568 145.023 171.991 142.878 172.042 138.561C172.086 134.893 173.683 131.988 176.481 129.662C177.302 128.979 178.634 128.227 177.613 126.928C176.674 125.734 175.299 126.028 174.166 126.79C173.117 127.495 172.235 128.448 171.186 129.154C169.279 130.436 167.082 131.139 165.238 129.415C163.184 127.495 164.049 125.198 165.384 123.179C166.305 121.786 167.593 120.744 169.122 120.014C172.34 118.48 175.644 118.006 179.084 119.166C180.505 119.646 182.147 119.458 181.683 117.765C180.54 113.595 179.758 109.373 178.943 105.144C178.771 104.253 178.142 103.452 177.078 103.571C175.881 103.705 175.919 104.74 175.903 105.623C175.863 107.916 175.874 110.228 176.586 112.423C177.487 115.201 177.143 116.534 173.688 116.2C169.572 115.802 165.879 117.188 163.133 120.432C158.759 125.601 159.47 131.546 165.061 133.098C168.397 134.023 168.207 135.659 168.151 138.137C168.009 144.478 171.982 147.751 178.184 146.554C179.299 146.339 180.444 146.061 181.451 145.562C182.637 144.976 183.393 145.167 184.488 145.943C189.81 149.717 192.342 149.426 196.978 144.552C198.026 143.451 198.952 142.944 200.544 142.98C206.723 143.121 212.709 138.196 213.967 132.175C215.096 126.772 213.262 123.449 208.041 121.449C206.74 120.952 205.435 120.467 203.476 119.728ZM147.719 50.2222C147.719 49.6658 147.73 48.7758 147.717 47.8857C147.671 44.7876 146.353 42.419 143.4 41.3467C140.31 40.2241 137.381 41.1257 135.528 43.6505C131.591 49.0174 129.967 55.0278 132.026 61.6353C132.855 64.2939 134.702 66.0008 137.478 66.3416C140.078 66.6613 142.252 65.5993 143.669 63.3851C146.165 59.4865 148.129 55.3839 147.719 50.2222ZM119.973 49.0458C119.897 48.0323 119.759 47.0193 119.755 46.0051C119.744 42.9748 118.283 40.892 115.525 39.8421C112.735 38.7801 110.237 39.7083 108.17 41.6361C103.943 45.5807 102.098 55.6024 104.513 60.9124C106.61 65.5249 112.301 66.4621 115.403 62.4606C118.41 58.5826 120.235 54.1221 119.973 49.0458Z" fill="#009BE0"/>
</svg>
