<svg width="28" height="28" viewBox="0 0 28 28" fill="none" xmlns="http://www.w3.org/2000/svg">
<g id="sticker">
<path id="Vector" fill-rule="evenodd" clip-rule="evenodd" d="M14.0126 2.50008C14.2809 2.49661 14.5409 2.60129 14.7326 2.7929L25.2071 13.2674C25.3987 13.4591 25.5034 13.7191 25.4999 13.9874C25.5 13.9916 25.5 13.9958 25.5 14C25.5 20.3513 20.3513 25.5 14 25.5C7.64873 25.5 2.5 20.3513 2.5 14C2.5 7.64873 7.64873 2.50001 14 2.50001C14.0042 2.50001 14.0084 2.50003 14.0126 2.50008ZM12.3506 4.64268C7.8901 5.42352 4.5 9.31586 4.5 14C4.5 19.2467 8.75329 23.5 14 23.5C18.6841 23.5 22.5765 20.1099 23.3573 15.6494C22.4395 15.9841 21.4489 16.1667 20.4167 16.1667C15.6762 16.1667 11.8333 12.3238 11.8333 7.58334C11.8333 6.55116 12.0159 5.56049 12.3506 4.64268ZM22.8241 13.7129L14.2871 5.17589C13.9942 5.92099 13.8333 6.73273 13.8333 7.58334C13.8333 11.2192 16.7808 14.1667 20.4167 14.1667C21.2673 14.1667 22.079 14.0058 22.8241 13.7129Z" fill="white"/>
</g>
</svg>
